<?xml version="1.0" standalone="no"?>
<!DOCTYPE svg PUBLIC "-//W3C//DTD SVG 20010904//EN"
 "http://www.w3.org/TR/2001/REC-SVG-20010904/DTD/svg10.dtd">
<svg version="1.0" xmlns="http://www.w3.org/2000/svg"
 width="1655.000000pt" height="1654.000000pt" viewBox="0 0 1655.000000 1654.000000"
 preserveAspectRatio="xMidYMid meet">
<metadata>
Created by potrace 1.10, written by Peter Selinger 2001-2011
</metadata>
<g transform="translate(0.000000,1654.000000) scale(0.100000,-0.100000)"
fill="#000000" stroke="none">
<path d="M2095 16529 c-157 -8 -174 -10 -335 -46 -548 -120 -1040 -454 -1362
-923 -195 -284 -327 -621 -375 -960 -4 -30 -8 -174 -8 -320 0 -235 3 -279 23
-390 89 -471 310 -882 654 -1216 284 -275 613 -460 990 -558 213 -56 333 -70
573 -70 230 0 340 13 548 65 657 164 1230 648 1502 1268 224 513 253 1067 84
1595 -165 516 -512 957 -979 1242 -221 135 -533 252 -770 289 -25 4 -54 9 -65
12 -32 7 -311 16 -304 10 5 -6 98 -18 249 -32 154 -15 382 -72 550 -139 83
-34 274 -128 278 -138 2 -4 8 -8 14 -8 12 0 224 -137 248 -161 8 -8 42 -36 75
-64 262 -216 486 -529 635 -885 15 -36 27 -67 27 -70 1 -3 12 -43 27 -90 41
-136 68 -268 83 -400 11 -98 7 -482 -5 -555 -15 -89 -17 -97 -41 -210 -50
-227 -162 -485 -309 -710 -206 -314 -512 -587 -844 -752 -146 -73 -237 -111
-322 -134 -38 -11 -78 -25 -88 -30 -11 -6 -22 -8 -25 -5 -3 3 -14 1 -24 -4 -9
-6 -35 -12 -56 -16 -21 -3 -56 -10 -78 -15 -88 -21 -220 -32 -406 -34 -198 -2
-257 3 -404 31 -44 9 -91 18 -105 19 -35 5 -213 56 -225 65 -5 4 -23 10 -40
14 -59 15 -284 123 -378 183 -37 24 -69 43 -72 43 -8 0 -106 72 -180 132 -88
71 -187 165 -255 243 -29 33 -66 75 -81 92 -54 61 -187 268 -246 384 -66 127
-130 291 -163 414 -29 109 -26 98 -54 240 -2 12 -7 48 -11 80 -4 33 -9 71 -11
85 -2 14 -4 93 -5 175 0 139 14 291 42 435 6 30 13 69 16 85 2 17 14 59 25 95
10 36 26 88 35 115 38 127 149 354 241 495 138 211 329 416 512 553 58 42 111
82 118 87 6 6 12 7 12 3 0 -4 4 -3 8 3 12 19 135 91 245 143 254 122 536 198
796 216 92 6 150 16 157 26 3 5 4 8 2 7 -2 0 -66 -5 -143 -9z"/>
<path d="M2020 16394 c-58 -6 -112 -14 -120 -17 -8 -3 -31 -8 -50 -11 -43 -7
-76 -14 -98 -20 -9 -3 -33 -8 -52 -11 -48 -8 -203 -62 -263 -91 -28 -13 -57
-24 -64 -24 -7 0 -13 -4 -13 -10 0 -5 -7 -10 -15 -10 -49 0 -325 -179 -469
-304 -604 -523 -862 -1306 -687 -2081 5 -22 12 -51 15 -64 41 -179 160 -444
278 -620 112 -168 301 -375 448 -493 265 -212 619 -375 925 -427 33 -6 74 -13
90 -16 147 -30 483 -24 675 11 228 41 530 151 685 248 193 121 308 211 445
349 321 321 522 725 595 1190 28 181 24 489 -9 647 -3 13 -8 42 -12 65 -18
120 -107 380 -181 529 -98 196 -170 297 -387 544 -12 13 -59 56 -106 95 -47
40 -87 74 -90 77 -30 30 -189 139 -257 176 -196 107 -453 209 -582 229 -19 3
-37 8 -41 10 -3 2 -60 11 -126 21 -141 20 -387 24 -534 8z m431 -25 c432 -44
834 -216 1160 -496 381 -328 623 -765 705 -1278 25 -152 25 -458 0 -610 -82
-513 -324 -950 -705 -1278 -635 -545 -1526 -660 -2278 -292 -580 282 -1000
825 -1127 1455 -136 672 57 1350 529 1858 152 163 391 338 605 441 346 167
740 238 1111 200z"/>
<path d="M2093 16290 c-337 -28 -667 -142 -947 -327 -481 -320 -794 -816 -881
-1398 -17 -117 -20 -392 -5 -515 83 -666 495 -1253 1088 -1550 294 -147 572
-212 902 -212 196 0 327 16 508 63 775 200 1365 862 1476 1658 21 146 21 416
0 562 -122 879 -819 1577 -1699 1703 -134 19 -318 26 -442 16z m412 -39 c33
-5 76 -12 95 -15 140 -23 250 -55 400 -116 69 -29 130 -55 135 -60 6 -4 42
-24 80 -45 87 -46 161 -94 245 -160 281 -217 486 -491 635 -850 28 -68 43
-116 70 -225 47 -191 58 -280 59 -485 1 -190 -6 -248 -60 -514 -18 -88 -112
-318 -177 -436 -149 -267 -313 -455 -557 -641 -123 -94 -320 -204 -445 -250
-102 -38 -295 -95 -340 -100 -27 -4 -54 -9 -59 -11 -4 -3 -29 -7 -55 -9 -25
-2 -57 -7 -71 -10 -41 -10 -310 -13 -375 -4 -33 5 -85 11 -115 14 -63 6 -142
21 -219 43 -29 8 -59 16 -65 17 -77 17 -266 95 -376 156 -119 66 -180 106
-280 184 -318 249 -564 609 -673 986 -28 97 -63 259 -73 340 -9 79 -11 356 -3
415 4 28 10 73 13 100 6 46 22 126 46 230 34 147 132 373 231 532 153 244 374
466 629 630 217 139 529 253 765 280 28 3 70 9 95 13 61 9 370 3 445 -9z"/>
<path d="M2191 16136 c-12 -14 -28 -140 -37 -296 -7 -132 -4 -140 67 -147 50
-5 68 14 69 70 0 38 16 50 27 20 12 -36 46 -63 79 -63 31 0 57 21 91 76 9 15
10 9 6 -36 -6 -73 7 -91 71 -93 50 -1 69 13 72 58 1 11 8 96 15 189 l13 169
-23 18 c-16 13 -39 19 -75 19 l-52 0 -49 -85 c-27 -47 -53 -84 -59 -82 -5 2
-21 38 -35 80 -14 42 -33 84 -42 93 -21 20 -123 28 -138 10z m115 -24 c6 -4
28 -54 49 -112 21 -58 40 -111 43 -118 2 -7 33 38 67 99 l62 113 54 -3 c30 -1
55 -4 56 -5 1 -1 -6 -90 -14 -199 l-17 -198 -44 3 -44 2 6 105 c4 58 10 117
12 131 4 19 -94 -145 -108 -182 -2 -4 -18 -3 -37 0 -34 7 -35 10 -71 117 l-37
110 -7 -90 c-4 -49 -9 -107 -12 -127 -6 -38 -6 -38 -51 -38 l-46 0 6 48 c3 26
11 116 18 200 l12 152 46 0 c25 0 51 -4 57 -8z"/>
<path d="M1710 16055 c-19 -7 -54 -18 -77 -24 -24 -7 -55 -22 -69 -34 l-27
-23 43 -135 c56 -178 74 -231 84 -248 12 -18 68 -9 181 31 114 39 165 86 165
151 0 45 -27 99 -58 116 -16 9 -18 18 -14 61 4 48 3 52 -34 85 -35 32 -43 35
-98 34 -34 -1 -77 -7 -96 -14z m171 -28 c20 -12 39 -49 39 -76 0 -10 -9 -30
-21 -45 l-20 -26 20 0 c11 0 35 -13 53 -29 27 -24 33 -36 33 -71 0 -65 -45
-100 -186 -144 -62 -20 -114 -35 -115 -33 -1 1 -29 86 -62 189 l-59 187 71 22
c138 43 161 48 195 43 18 -3 42 -10 52 -17z"/>
<path d="M1720 15946 c-35 -11 -36 -12 -26 -46 5 -19 10 -36 11 -38 6 -7 96
22 106 34 6 8 8 25 5 39 -7 28 -34 31 -96 11z m68 -28 c-5 -15 -56 -29 -63
-18 -7 11 24 29 48 30 10 0 17 -5 15 -12z"/>
<path d="M1777 15802 c-36 -12 -46 -20 -42 -31 4 -9 9 -28 12 -42 l5 -27 59
20 c47 16 60 25 66 45 4 19 1 30 -12 40 -23 16 -27 15 -88 -5z m68 -22 c6 -9
-44 -40 -65 -40 -24 0 -7 30 23 39 17 5 33 10 34 10 1 1 4 -3 8 -9z"/>
<path d="M2826 16006 c-21 -8 -55 -28 -75 -44 -131 -105 -102 -310 55 -388 61
-30 167 -26 224 8 160 94 149 317 -20 403 -62 31 -134 39 -184 21z m170 -44
c144 -74 164 -248 41 -346 -32 -26 -49 -31 -106 -34 -58 -4 -75 0 -119 22
-126 64 -159 211 -69 313 65 74 163 91 253 45z"/>
<path d="M2849 15877 c-21 -14 -39 -38 -48 -63 -13 -37 -12 -44 5 -80 22 -46
74 -76 117 -67 38 8 85 57 92 97 13 67 -41 136 -108 136 -13 0 -39 -10 -58
-23z m116 -32 c29 -29 31 -51 11 -100 -12 -27 -23 -36 -56 -45 -33 -9 -45 -8
-58 2 -28 22 -32 31 -32 80 0 39 4 50 28 67 37 28 76 26 107 -4z"/>
<path d="M1370 15914 c-64 -46 -64 -52 3 -151 74 -108 86 -133 76 -161 -10
-27 -31 -36 -64 -28 -17 4 -43 35 -85 100 -33 51 -69 101 -79 110 -18 16 -21
15 -65 -11 -26 -15 -49 -38 -52 -50 -4 -15 16 -54 74 -143 l81 -121 -57 -54
c-31 -30 -59 -55 -62 -55 -3 0 -48 40 -100 90 -52 49 -103 92 -114 96 -12 4
-29 -4 -53 -28 -65 -62 -67 -58 59 -178 95 -92 109 -110 93 -115 -57 -18 -70
-32 -73 -82 -5 -69 -32 -97 -92 -90 -53 6 -80 34 -80 82 0 34 3 37 79 94 23
17 24 21 13 57 -6 22 -18 48 -25 58 -12 17 -18 17 -52 6 -119 -39 -195 -200
-147 -312 38 -86 93 -129 185 -143 73 -11 133 10 187 65 47 48 65 89 75 172 6
44 7 47 26 35 19 -11 30 -2 120 91 54 56 99 110 99 121 0 10 -9 26 -20 36 -26
23 -26 39 -1 25 39 -20 113 -12 169 20 98 57 138 143 107 233 -23 67 -151 257
-173 256 -9 0 -33 -12 -52 -25z m201 -232 c23 -60 5 -125 -48 -173 -61 -57
-133 -78 -189 -54 -53 22 -68 37 -131 134 -30 47 -62 95 -70 107 -14 22 -13
24 26 48 22 14 43 26 45 26 2 0 35 -47 71 -105 37 -58 76 -110 86 -115 29 -16
64 -12 93 11 44 35 36 70 -45 194 -39 60 -67 111 -62 112 5 2 25 14 44 27 l34
24 69 -107 c37 -58 72 -116 77 -129z m-508 -302 l78 -75 58 60 59 61 32 -28
33 -27 -93 -100 -93 -100 -143 136 -144 136 32 39 31 39 36 -33 c20 -18 71
-66 114 -108z m-219 -95 l15 -46 -27 -10 c-126 -48 -94 -219 42 -219 30 0 45
7 73 35 31 31 34 39 32 82 l-3 47 39 8 c44 10 55 1 55 -48 0 -58 -28 -128 -67
-166 -46 -45 -79 -58 -144 -58 -186 0 -267 227 -128 356 26 24 79 59 96 64 0
0 8 -20 17 -45z"/>
<path d="M3269 15808 c-11 -13 -60 -70 -107 -128 -48 -58 -93 -111 -100 -119
-7 -8 -21 -25 -30 -39 -16 -24 -15 -25 26 -63 23 -22 50 -39 61 -39 12 0 38
23 67 60 26 33 49 60 52 60 2 0 2 -39 -1 -86 -5 -98 3 -148 30 -174 19 -17 57
-40 67 -40 13 0 266 315 266 331 0 20 -67 79 -89 79 -8 0 -38 -25 -66 -55 -28
-30 -53 -55 -55 -55 -3 0 -4 48 -2 108 4 119 -2 133 -65 166 -31 15 -33 15
-54 -6z m68 -34 l33 -25 -5 -87 c-3 -48 -8 -118 -10 -155 l-5 -69 62 77 c35
43 71 87 80 99 l17 21 33 -30 c18 -17 34 -31 36 -32 7 -3 -243 -302 -254 -302
-5 -1 -23 12 -38 28 l-28 29 9 149 c5 81 9 149 8 150 0 1 -34 -41 -75 -92 -41
-52 -77 -94 -80 -94 -3 0 -20 13 -39 29 -30 25 -32 30 -20 47 26 36 233 283
238 283 2 0 19 -11 38 -26z"/>
<path d="M2259 15546 c-2 -2 -49 -6 -104 -9 -55 -4 -111 -9 -125 -12 -14 -4
-34 -8 -45 -10 -92 -17 -157 -41 -290 -105 -66 -32 -130 -68 -142 -79 -12 -12
-27 -21 -33 -21 -5 0 -10 -4 -10 -8 0 -4 -13 -15 -29 -25 -45 -27 -171 -155
-234 -239 -81 -108 -182 -307 -202 -398 -2 -8 -10 -42 -19 -75 -32 -125 -42
-354 -20 -471 59 -327 213 -590 467 -798 160 -131 410 -237 617 -262 544 -66
1060 217 1295 711 46 95 92 235 113 340 4 17 6 109 6 205 -1 154 -4 187 -26
275 -105 411 -371 723 -753 885 -40 17 -135 50 -157 54 -13 2 -54 11 -93 19
-38 8 -99 15 -134 16 -36 1 -68 4 -72 6 -3 3 -8 3 -10 1z m94 -36 c290 -28
532 -135 740 -330 249 -233 387 -551 387 -896 0 -347 -131 -651 -386 -894
-325 -311 -791 -417 -1224 -279 -298 96 -569 329 -715 614 -261 513 -128 1151
317 1510 223 179 420 253 758 284 8 0 64 -4 123 -9z"/>
<path d="M2137 15303 c-10 -205 -59 -453 -128 -649 -24 -69 -95 -226 -157
-346 -2 -5 176 -8 395 -8 l399 0 -61 124 c-135 272 -196 521 -231 939 l-6 67
-102 0 -103 0 -6 -127z m200 -43 c27 -308 106 -607 224 -842 22 -43 39 -80 39
-83 0 -3 -157 -5 -350 -5 -198 0 -350 4 -350 9 0 5 16 41 35 80 122 246 202
548 225 850 5 67 12 126 15 131 4 7 36 10 78 8 l72 -3 12 -145z"/>
<path d="M2010 15406 c-279 -62 -529 -228 -693 -458 -56 -79 -121 -197 -113
-205 5 -5 287 -63 308 -63 4 0 12 19 18 43 17 66 28 86 53 98 38 17 75 -9 184
-130 54 -59 99 -107 101 -106 5 4 -45 289 -72 415 -25 113 -25 116 -7 140 25
33 49 31 144 -13 l77 -37 25 38 c23 36 34 85 50 235 7 64 11 62 -75 43z m44
-78 c-6 -104 -32 -198 -55 -198 -5 0 -41 15 -81 34 -83 39 -117 38 -149 -3
-25 -32 -23 -65 15 -246 33 -154 45 -235 36 -235 -4 0 -36 32 -71 70 -78 86
-103 103 -148 102 -44 -2 -67 -24 -90 -88 -19 -54 -14 -52 -116 -33 -33 6 -79
14 -103 18 -23 4 -45 11 -48 14 -8 7 64 132 113 197 80 105 202 215 326 292
77 48 288 125 348 127 25 1 26 -1 23 -51z"/>
<path d="M2415 15388 c3 -18 10 -73 16 -123 9 -82 18 -106 60 -167 3 -5 45 10
94 33 82 40 89 42 114 28 14 -8 27 -25 29 -37 2 -12 -13 -104 -32 -205 -20
-100 -42 -217 -49 -260 l-14 -77 67 72 c37 40 82 90 100 111 34 39 77 67 105
67 27 0 53 -37 65 -94 6 -31 17 -56 23 -56 7 0 80 14 162 30 83 17 151 30 152
30 5 0 -88 163 -117 205 -44 64 -167 193 -233 243 -127 98 -288 176 -439 212
-109 26 -108 26 -103 -12z m263 -68 c45 -18 90 -39 99 -48 9 -10 17 -15 18
-12 2 7 123 -73 175 -117 110 -93 207 -211 267 -325 27 -52 23 -66 -17 -69
-26 -1 -73 -9 -125 -20 -27 -5 -60 -12 -72 -15 -18 -3 -23 3 -33 46 -14 60
-57 100 -102 95 -33 -5 -40 -10 -128 -100 -38 -38 -71 -68 -73 -65 -3 3 2 39
9 80 8 41 17 91 19 110 3 19 8 42 10 50 2 8 7 31 10 50 3 19 11 41 18 49 10
12 9 13 -2 6 -10 -6 -12 -4 -6 6 15 23 17 82 3 107 -30 57 -83 59 -175 8 -56
-32 -67 -32 -85 -3 -24 36 -49 212 -33 229 8 7 132 -27 223 -62z"/>
<path d="M1880 15045 c0 -1 11 -56 24 -121 13 -66 27 -141 31 -169 l7 -50 24
75 c13 41 31 101 39 132 9 32 18 64 21 73 4 10 0 15 -12 15 -11 0 -45 11 -76
24 -32 13 -58 23 -58 21z m85 -59 l34 -15 -19 -67 c-28 -96 -28 -96 -49 4 -12
58 -14 92 -6 92 3 0 21 -6 40 -14z"/>
<path d="M2580 15029 c-19 -10 -51 -21 -72 -25 -34 -6 -36 -8 -28 -33 4 -14
23 -75 41 -136 18 -60 36 -114 39 -118 4 -5 10 15 14 44 8 55 43 241 52 272 6
21 -1 20 -46 -4z m10 -36 c0 -17 -31 -167 -35 -171 -5 -5 -8 2 -29 77 -21 74
-21 77 17 89 41 13 47 14 47 5z"/>
<path d="M1614 14678 c-15 -93 -61 -104 -249 -64 -60 13 -111 23 -112 22 -1
-1 8 -35 21 -76 12 -41 33 -117 46 -168 26 -106 24 -113 -49 -145 -51 -22 -62
-8 107 -142 l122 -97 43 47 c107 122 193 241 270 376 l26 46 -109 122 -110
121 -6 -42z m50 -40 c11 -13 48 -55 82 -94 l63 -70 -37 -65 c-82 -140 -250
-359 -275 -359 -7 0 -44 27 -84 58 -39 32 -83 67 -97 77 -34 26 -33 35 9 68
44 35 44 49 4 192 -41 149 -43 155 -33 155 5 0 47 -8 94 -17 47 -9 107 -17
133 -17 43 -1 52 3 78 32 16 18 29 39 29 47 0 21 13 19 34 -7z"/>
<path d="M2774 14599 c-54 -61 -101 -115 -102 -120 -10 -27 176 -300 279 -412
l54 -58 136 109 137 109 -52 24 c-44 21 -51 28 -54 56 -3 26 27 152 75 314 4
15 -8 14 -109 -7 -115 -24 -174 -29 -203 -18 -20 8 -45 56 -45 89 0 14 -4 25
-9 25 -4 0 -53 -50 -107 -111z m155 -23 c33 -19 34 -19 153 3 66 12 123 19
126 17 2 -3 -7 -47 -20 -98 -53 -193 -53 -194 -34 -223 9 -14 28 -31 42 -37
13 -6 24 -14 24 -18 0 -7 -159 -137 -197 -160 -20 -13 -25 -11 -65 34 -95 108
-258 346 -258 379 0 7 37 52 82 101 l82 88 15 -33 c9 -18 31 -42 50 -53z"/>
<path d="M1132 14528 c-40 -198 -38 -347 9 -533 20 -77 76 -225 86 -225 6 0
109 84 161 132 29 26 40 44 34 50 -5 5 -72 60 -148 121 -76 62 -144 124 -151
139 -21 42 -4 70 61 97 31 12 56 25 56 28 0 14 -74 279 -80 286 -4 5 -17 -38
-28 -95z m56 -101 l21 -78 -32 -14 c-47 -20 -50 -8 -32 120 3 22 6 46 7 53 3
25 16 -4 36 -81z m17 -331 c22 -17 42 -33 45 -36 3 -3 32 -27 65 -54 33 -27
64 -53 69 -57 5 -4 -9 -22 -29 -41 -21 -18 -50 -43 -64 -56 -55 -49 -57 -48
-85 26 -27 72 -45 137 -51 180 -2 15 -6 40 -11 56 -8 33 -5 32 61 -18z"/>
<path d="M3305 14493 c-21 -76 -40 -143 -42 -149 -2 -6 21 -22 52 -34 66 -27
84 -54 66 -97 -7 -17 -71 -76 -161 -147 -127 -101 -148 -121 -137 -134 29 -37
190 -163 197 -155 14 15 60 136 80 211 47 179 51 376 10 550 -12 51 -23 92
-24 92 -1 0 -20 -62 -41 -137z m65 -125 c0 -27 -2 -48 -5 -48 -15 0 -65 32
-65 41 0 16 31 132 38 144 9 14 32 -83 32 -137z m-13 -270 c-12 -91 -74 -280
-92 -279 -17 2 -145 112 -145 124 1 10 227 197 239 197 1 0 1 -19 -2 -42z"/>
<path d="M1763 14167 c-106 -159 -278 -351 -432 -480 l-44 -37 58 -76 c62 -80
156 -170 246 -234 l54 -38 -3 88 c-11 263 183 500 463 566 82 19 252 14 325
-10 271 -88 440 -311 428 -566 l-3 -77 68 50 c83 61 176 151 240 235 l48 62
-33 27 c-18 14 -94 87 -169 162 -125 125 -258 288 -312 382 l-22 39 -425 0
-425 0 -62 -93z m900 58 c9 -4 17 -11 17 -16 0 -15 88 -138 164 -229 79 -95
193 -212 275 -284 52 -45 53 -48 40 -72 -31 -58 -243 -264 -271 -264 -3 0 -8
39 -11 88 -10 175 -97 320 -262 436 -253 179 -618 141 -837 -87 -101 -106
-150 -216 -165 -372 -3 -33 -7 -61 -8 -63 -5 -6 -139 111 -185 162 -52 57 -90
106 -90 118 0 5 60 67 134 138 128 125 250 269 334 395 l40 61 403 -1 c222 -1
412 -5 422 -10z"/>
<path d="M2175 13910 c-234 -36 -405 -228 -405 -454 0 -131 43 -233 110 -260
84 -33 241 -58 370 -59 136 0 211 11 336 48 l81 25 27 60 c59 132 57 254 -9
387 -63 127 -205 229 -355 253 -72 11 -82 11 -155 0z m180 -34 c134 -24 252
-116 313 -244 32 -68 35 -79 35 -175 0 -84 -4 -111 -23 -154 -22 -52 -41 -75
-64 -79 -6 -1 -45 -12 -86 -23 -41 -12 -93 -24 -115 -28 -47 -6 -275 -6 -325
0 -75 10 -156 29 -182 43 -16 8 -28 12 -28 8 0 -17 -33 24 -51 64 -53 116 -42
270 27 383 82 136 239 221 394 214 41 -2 89 -6 105 -9z"/>
<path d="M2212 13763 c-30 -44 -62 -139 -62 -188 l0 -44 -27 15 c-60 31 -128
12 -157 -45 -15 -29 -15 -39 -1 -81 24 -73 130 -91 154 -27 5 13 5 27 -1 35
-22 26 4 10 43 -28 23 -22 46 -37 52 -33 6 3 3 -4 -6 -18 -23 -33 -21 -56 8
-84 31 -32 38 -31 70 2 29 32 31 45 9 78 -14 22 -14 25 -1 25 8 0 26 13 39 28
34 41 52 50 43 22 -9 -29 25 -65 66 -68 24 -2 39 6 66 33 32 32 35 39 30 77
-3 25 -15 51 -30 65 -32 32 -97 42 -131 19 -34 -22 -36 -21 -29 15 12 60 -57
219 -99 227 -9 2 -25 -10 -36 -25z m72 -47 c14 -29 31 -74 38 -100 12 -45 11
-49 -25 -121 -20 -42 -37 -82 -37 -90 0 -8 -4 -15 -10 -15 -5 0 -10 6 -10 13
0 7 -16 46 -36 87 -28 58 -35 83 -31 112 6 45 62 168 76 168 5 0 21 -24 35
-54z m-168 -195 c35 -21 78 -74 89 -108 9 -33 0 -29 -44 17 -25 27 -47 40 -64
40 -36 0 -45 -20 -19 -41 28 -22 28 -35 1 -49 -25 -14 -75 3 -89 31 -18 32
-11 79 15 104 29 30 68 32 111 6z m375 -10 c35 -35 37 -71 7 -105 -30 -33 -70
-42 -92 -21 -21 22 -20 32 4 38 22 6 26 29 8 45 -20 16 -76 -12 -96 -48 -16
-28 -42 -41 -42 -21 0 22 68 106 100 123 49 25 77 23 111 -11z m-219 -172 c16
-28 16 -32 2 -55 -21 -31 -28 -30 -54 6 -12 17 -16 30 -10 30 6 0 15 11 20 25
12 33 21 31 42 -6z"/>
<path d="M3625 15488 c-22 -12 -55 -47 -55 -58 0 -3 11 -21 25 -40 32 -43 31
-51 -3 -72 -47 -30 -161 -114 -186 -137 -15 -14 -22 -29 -19 -40 12 -31 65
-91 81 -91 10 1 67 37 127 80 104 75 135 92 135 71 0 -16 49 -61 68 -61 24 0
82 49 82 69 -1 14 -61 102 -171 249 -32 43 -50 50 -84 30z m135 -142 c52 -73
93 -137 91 -142 -1 -5 -15 -17 -31 -27 l-28 -18 -33 46 c-18 25 -35 45 -38 45
-3 0 -62 -41 -130 -90 l-124 -89 -28 37 c-16 20 -29 40 -29 43 0 3 56 46 125
95 69 48 125 91 125 94 0 3 -15 25 -34 50 l-33 45 31 22 c17 12 33 22 36 22 3
0 48 -60 100 -133z"/>
<path d="M3845 15105 c-80 -36 -131 -58 -140 -60 -5 -1 -23 -7 -40 -14 -16 -6
-49 -19 -72 -28 -23 -8 -49 -23 -58 -33 -15 -16 -14 -22 10 -75 27 -62 21 -60
108 -41 39 9 36 -19 -8 -69 -36 -42 -42 -63 -25 -93 21 -36 34 -79 35 -117 3
-51 14 -163 21 -195 3 -14 7 -65 8 -115 4 -101 9 -122 37 -130 20 -7 24 -31
12 -98 -4 -29 -13 -42 -32 -50 -47 -20 -61 -38 -61 -80 0 -22 -9 -54 -19 -71
-11 -18 -41 -81 -66 -141 l-46 -110 26 -22 c29 -26 68 -38 90 -29 9 3 27 33
41 66 15 33 32 60 39 60 6 0 67 -22 136 -49 l124 -50 21 20 c12 11 27 38 34
59 12 36 11 42 -5 60 -10 11 -23 20 -30 20 -6 0 -35 11 -63 25 -29 14 -56 25
-61 25 -5 0 -22 6 -38 14 -15 8 -43 20 -62 28 l-35 15 50 15 c27 9 63 19 79
22 130 27 220 55 236 74 17 22 24 109 10 131 -5 8 -32 29 -60 45 -28 17 -93
57 -146 89 -79 48 -94 61 -85 73 9 10 9 34 0 99 -12 82 -8 114 9 86 5 -7 11
-40 15 -73 7 -71 18 -88 57 -88 58 0 77 15 81 65 2 26 0 49 -4 51 -12 7 -10
72 2 79 6 3 10 5 10 3 1 -2 3 -28 6 -58 11 -128 21 -146 82 -142 59 4 65 15
57 105 -3 44 -8 87 -10 96 -1 9 -6 44 -10 78 -11 95 -17 97 -215 68 -73 -11
-172 -16 -168 -8 23 50 45 73 63 67 11 -4 43 -8 70 -10 44 -2 57 3 98 32 54
39 67 65 67 133 0 52 -67 237 -91 252 -19 12 -49 10 -84 -6z m110 -102 c47
-123 52 -160 30 -207 -31 -65 -139 -98 -193 -60 -13 9 -25 14 -26 13 -2 -2
-22 -31 -46 -63 l-43 -59 -24 53 -23 53 40 43 c22 24 40 51 40 59 0 13 -15 50
-25 63 -1 1 -23 -7 -49 -18 -26 -11 -49 -20 -50 -20 -6 0 -38 91 -34 95 4 4
350 143 359 144 4 1 23 -43 44 -96z m116 -365 c2 -8 37 -303 35 -304 0 -1 -17
-4 -37 -8 -43 -8 -44 -6 -55 122 l-7 84 -36 -7 c-20 -4 -38 -8 -40 -11 -2 -2
1 -43 8 -90 6 -48 10 -88 8 -89 -1 -1 -18 -5 -39 -8 -41 -6 -40 -7 -54 121 -6
59 -8 62 -33 62 -50 0 -53 -9 -42 -101 15 -117 15 -117 -19 -126 -29 -8 -23
-13 149 -118 l180 -110 -6 -50 c-3 -27 -7 -52 -9 -53 -1 -2 -95 -28 -208 -57
-226 -59 -212 -60 -200 18 6 34 10 38 45 43 22 4 39 12 40 18 0 6 6 45 13 87
l12 77 -34 18 c-32 17 -34 21 -29 58 3 21 -3 109 -14 194 -10 86 -19 163 -19
172 0 13 30 19 178 37 202 23 212 24 213 21z m-259 -876 c89 -38 171 -71 180
-75 16 -6 16 -10 -3 -56 -17 -41 -24 -48 -38 -40 -9 5 -73 33 -143 62 l-127
54 -32 -78 c-17 -44 -33 -79 -36 -79 -4 0 -65 30 -71 35 -1 1 16 47 39 101 23
54 45 109 50 122 5 12 10 22 13 22 2 0 78 -31 168 -68z"/>
<path d="M3840 14962 c-19 -8 -45 -18 -57 -23 l-22 -8 21 -52 c26 -61 53 -77
94 -58 36 18 42 58 17 115 l-18 41 -35 -15z m24 -38 c18 -17 22 -69 6 -79 -19
-12 -48 6 -60 36 -7 16 -11 31 -9 32 2 1 13 7 24 14 11 6 21 12 22 12 1 1 9
-6 17 -15z"/>
<path d="M3840 14071 c0 -15 -3 -42 -6 -59 l-6 -31 53 14 c30 8 65 15 79 15
l25 1 -24 17 c-14 9 -46 29 -73 45 l-48 27 0 -29z m53 -38 c-7 -2 -19 -2 -25
0 -7 3 -2 5 12 5 14 0 19 -2 13 -5z"/>
<path d="M510 14763 c-67 -56 -102 -201 -68 -279 20 -48 62 -104 76 -104 7 0
15 -6 18 -14 6 -14 45 -28 98 -35 6 0 -2 -13 -16 -28 -28 -32 -58 -101 -58
-138 0 -13 -4 -26 -8 -29 -9 -5 -1 55 12 104 8 30 -11 51 -63 69 -26 8 -37 8
-49 -2 -46 -38 -58 -188 -21 -263 50 -104 179 -115 233 -20 13 22 29 65 36 95
7 31 16 48 20 41 9 -14 -5 -81 -25 -120 -13 -25 -12 -29 8 -47 12 -11 37 -25
56 -32 29 -9 36 -8 48 7 87 108 64 325 -38 357 -27 9 -24 17 25 58 61 51 97
127 92 198 -9 130 -26 152 -125 170 -64 11 -73 10 -90 -5 -10 -9 -21 -35 -25
-57 -7 -47 4 -63 55 -76 30 -8 34 -14 37 -45 5 -64 -71 -100 -128 -61 -14 9
-28 22 -32 27 -15 22 -7 72 17 111 30 49 30 63 2 95 -44 51 -52 53 -87 23z
m65 -34 c23 -28 24 -34 12 -48 -54 -61 -60 -126 -16 -175 74 -85 202 -37 202
75 0 22 -3 42 -6 45 -3 4 -26 9 -52 11 -48 6 -51 11 -39 69 l6 29 78 -14 79
-15 10 -42 c24 -95 8 -175 -47 -236 -44 -49 -85 -68 -147 -68 -61 0 -103 19
-146 67 -74 82 -72 206 5 305 12 15 24 27 28 27 3 1 18 -13 33 -30z m222 -456
c22 -27 43 -93 43 -136 0 -31 -26 -118 -42 -140 -12 -17 -16 -17 -51 -2 -42
17 -42 18 -23 48 38 57 38 149 0 164 -24 9 -33 -7 -55 -92 -22 -88 -36 -109
-85 -125 -69 -23 -137 37 -150 131 -7 52 12 158 30 165 7 3 28 -2 49 -11 l36
-15 -15 -36 c-19 -46 -22 -110 -6 -126 23 -23 46 6 65 83 27 110 72 147 152
127 17 -4 40 -20 52 -35z"/>
<path d="M588 13926 c-84 -44 -115 -95 -104 -170 9 -57 50 -181 72 -214 14
-21 20 -23 57 -17 23 4 48 11 57 16 16 10 55 23 197 70 108 35 118 47 97 110
-26 73 -31 76 -111 53 -19 -5 -25 1 -44 45 -18 44 -75 109 -97 112 -45 7 -106
4 -124 -5z m132 -31 c33 -17 63 -63 81 -123 13 -46 14 -46 86 -17 l32 14 16
-50 c10 -28 15 -51 14 -52 -2 -1 -83 -29 -179 -61 -96 -32 -179 -60 -185 -62
-13 -5 -76 191 -75 236 1 98 118 162 210 115z"/>
<path d="M613 13796 l-27 -24 17 -55 17 -55 58 21 c31 11 58 22 60 23 6 4 -29
78 -45 96 -22 24 -47 23 -80 -6z m64 -14 c6 -4 14 -19 18 -33 6 -23 2 -28 -24
-37 -27 -9 -32 -8 -41 8 -15 28 -12 48 8 59 21 13 24 13 39 3z"/>
<path d="M1908 12860 c-16 -12 -28 -29 -28 -39 0 -24 34 -51 51 -40 8 5 17 9
22 9 18 0 3 -19 -48 -58 -56 -44 -70 -77 -42 -100 12 -10 114 -32 149 -32 10
0 23 11 30 24 l11 25 29 -30 c16 -16 35 -30 41 -30 7 -1 23 -3 37 -4 32 -3 76
19 90 46 11 20 12 19 46 -11 35 -31 39 -32 74 -32 11 0 27 0 36 1 24 2 84 66
84 90 0 12 5 21 10 21 7 0 8 -13 4 -36 -8 -43 4 -54 61 -54 70 0 115 51 115
130 0 115 -103 175 -184 108 -34 -27 -37 -28 -58 -14 -43 30 -131 14 -160 -28
-4 -7 -16 -3 -30 11 -45 41 -117 47 -153 13 l-23 -22 -29 32 c-38 42 -96 51
-135 20z m110 -26 c44 -30 26 -72 -58 -135 l-35 -26 53 -8 c52 -7 58 -11 44
-31 -9 -15 -152 14 -152 30 0 6 29 32 65 58 43 31 65 54 65 68 0 24 -39 36
-69 20 -12 -6 -21 -9 -21 -6 0 2 -3 11 -6 19 -10 28 78 36 114 11z m601 -3
c25 -25 44 -94 35 -124 -15 -50 -72 -85 -115 -72 -33 11 -22 33 15 32 43 -1
66 17 66 54 0 29 0 29 -20 9 -24 -24 -67 -26 -92 -3 -27 24 -24 87 4 107 31
22 84 20 107 -3z m-391 -37 c16 -19 22 -37 22 -75 0 -42 -5 -55 -29 -80 -20
-20 -39 -29 -61 -29 -45 0 -90 47 -90 95 0 49 24 103 52 115 34 14 80 3 106
-26z m203 7 c25 -26 29 -37 29 -85 0 -62 -18 -90 -65 -102 -61 -15 -104 23
-112 99 -9 98 82 153 148 88z m-385 -105 c0 -33 0 -34 -24 -18 l-24 16 24 18
c12 9 23 18 24 18 0 0 0 -15 0 -34z"/>
<path d="M2532 12808 c-30 -30 0 -75 42 -64 29 7 40 31 26 57 -12 21 -50 25
-68 7z m38 -22 c0 -3 -4 -8 -10 -11 -5 -3 -10 -1 -10 4 0 6 5 11 10 11 6 0 10
-2 10 -4z"/>
<path d="M2130 12780 c-25 -25 -28 -101 -4 -124 33 -33 83 -9 86 42 2 51 -3
77 -19 90 -23 17 -40 15 -63 -8z m48 -22 c11 -15 7 -67 -7 -81 -16 -16 -31 3
-31 42 0 50 16 66 38 39z"/>
<path d="M2337 12782 c-22 -24 -22 -90 -1 -120 38 -54 102 -1 88 73 -11 62
-54 84 -87 47z m54 -34 c1 -7 3 -23 4 -35 3 -29 -10 -47 -29 -40 -11 4 -16 19
-16 47 0 33 3 40 20 40 11 0 21 -6 21 -12z"/>
</g>
</svg>
