<?xml version="1.0" standalone="no"?>
<!DOCTYPE svg PUBLIC "-//W3C//DTD SVG 20010904//EN"
 "http://www.w3.org/TR/2001/REC-SVG-20010904/DTD/svg10.dtd">
<svg version="1.0" xmlns="http://www.w3.org/2000/svg"
 width="1655.000000pt" height="1654.000000pt" viewBox="0 0 1655.000000 1654.000000"
 preserveAspectRatio="xMidYMid meet">
<metadata>
Created by potrace 1.16, written by Peter Selinger 2001-2019
</metadata>
<g transform="translate(0.000000,1654.000000) scale(0.100000,-0.100000)"
fill="#000000" stroke="none">
<path d="M7836 16529 c-2870 -156 -5436 -1778 -6827 -4314 -497 -908 -835
-1975 -948 -3000 -42 -379 -46 -445 -46 -935 0 -507 6 -618 50 -995 169 -1421
711 -2781 1568 -3935 600 -808 1356 -1512 2202 -2053 896 -572 1905 -970 2945
-1161 270 -50 585 -90 925 -118 197 -16 941 -16 1140 0 779 64 1413 192 2086
421 1488 506 2801 1426 3793 2659 1003 1246 1626 2771 1780 4352 24 241 25
268 37 550 5 146 8 330 4 410 -14 357 -17 415 -31 580 -87 1019 -377 2048
-840 2972 -317 633 -706 1211 -1190 1766 -160 184 -533 558 -721 724 -1425
1258 -3174 1976 -5068 2078 -216 11 -638 11 -859 -1z m829 -589 c2226 -119
4227 -1149 5625 -2894 907 -1132 1477 -2531 1625 -3981 47 -465 51 -1053 10
-1480 -31 -326 -63 -543 -121 -833 -291 -1460 -986 -2771 -2039 -3851 -1025
-1050 -2320 -1782 -3735 -2109 -1416 -328 -2881 -255 -4249 213 -357 122 -618
232 -974 412 -1135 574 -2124 1438 -2857 2497 -794 1146 -1249 2468 -1340
3891 -13 206 -13 724 0 930 62 961 282 1853 672 2715 629 1391 1714 2607 3038
3405 1298 782 2833 1165 4345 1085z"/>
<path d="M7840 15630 c-1698 -110 -3244 -758 -4500 -1886 -159 -143 -475 -463
-613 -622 -942 -1080 -1547 -2396 -1746 -3797 -59 -413 -66 -525 -66 -1055 0
-520 7 -635 61 -1025 270 -1939 1307 -3694 2884 -4877 1072 -804 2338 -1297
3675 -1432 406 -41 980 -46 1365 -11 1246 111 2392 507 3415 1180 2445 1607
3707 4481 3234 7365 -378 2304 -1830 4293 -3914 5361 -864 443 -1742 695
-2735 785 -205 18 -856 27 -1060 14z m525 -646 c44 -3 95 -9 114 -13 l35 -7
153 -424 c84 -234 156 -433 161 -443 6 -14 60 75 237 392 l230 411 60 0 c76
-1 334 -26 342 -33 4 -5 -9 -198 -32 -457 -3 -30 -12 -138 -20 -240 -8 -102
-17 -212 -20 -245 -3 -33 -7 -89 -10 -125 -3 -36 -8 -87 -10 -115 -2 -27 -7
-84 -10 -125 -3 -41 -8 -90 -11 -109 l-5 -34 -92 7 c-51 4 -123 10 -161 13
l-69 6 7 107 c4 59 9 124 11 146 2 21 11 129 20 239 9 110 20 251 26 314 5 63
8 115 6 117 -2 2 -94 -164 -204 -369 l-201 -372 -94 2 c-51 2 -107 5 -124 8
l-31 5 -139 408 -139 407 -6 -60 c-4 -33 -10 -100 -13 -150 -4 -49 -9 -110
-11 -135 -3 -25 -7 -72 -9 -105 -17 -216 -39 -480 -41 -483 -2 -3 -248 17
-294 24 l-34 5 7 107 c4 59 9 125 12 147 2 22 10 119 18 215 8 96 29 357 47
579 l34 403 90 -6 c49 -3 126 -9 170 -12z m-1526 -288 c135 -49 219 -180 209
-325 -6 -86 -35 -149 -96 -210 l-49 -49 71 -4 c128 -9 232 -81 292 -203 26
-55 29 -69 29 -165 0 -130 -19 -175 -114 -271 -99 -99 -188 -138 -611 -269
-195 -61 -361 -111 -369 -113 -10 -1 -73 188 -227 683 -117 377 -214 690 -214
697 0 7 53 28 118 48 64 20 223 70 353 110 213 67 305 89 394 97 51 5 168 -10
214 -26z m3931 -197 c92 -14 217 -59 307 -110 114 -64 255 -208 311 -316 179
-347 57 -776 -277 -973 -110 -65 -207 -92 -348 -98 -156 -6 -268 18 -410 87
-335 164 -507 490 -437 829 83 403 442 647 854 581z m-5287 -622 c253 -391
289 -454 314 -550 23 -88 20 -225 -6 -307 -44 -139 -150 -269 -298 -367 -149
-97 -262 -134 -413 -134 -164 0 -281 50 -400 170 -62 62 -121 146 -319 454
-134 208 -242 379 -240 381 41 29 310 198 313 195 2 -2 108 -166 236 -364 127
-198 251 -380 273 -404 123 -128 314 -121 438 17 56 62 74 117 67 207 -7 82
-19 103 -292 523 -119 184 -218 338 -219 343 -2 9 281 197 299 198 7 1 118
-162 247 -362z m6793 -155 l112 -92 -4 -52 c-11 -153 -54 -1051 -51 -1054 2
-3 131 149 286 336 250 301 285 339 299 328 10 -7 70 -57 135 -111 l117 -98
-22 -29 c-118 -148 -905 -1089 -911 -1090 -13 0 -247 200 -248 213 -2 21 25
588 36 757 12 188 17 340 13 340 -3 0 -130 -151 -283 -335 -153 -184 -282
-335 -287 -335 -5 0 -66 48 -137 107 -109 91 -127 110 -117 124 6 9 215 262
465 563 398 479 456 544 470 533 9 -7 66 -55 127 -105z m-8638 -1184 c141
-133 327 -309 413 -390 l156 -148 209 224 c115 124 211 225 214 225 3 0 56
-48 117 -107 l113 -107 -334 -355 c-184 -195 -339 -356 -344 -358 -8 -2 -1062
983 -1062 994 0 10 244 264 253 264 5 0 124 -109 265 -242z m4978 222 c182
-15 358 -37 509 -66 1159 -223 2176 -880 2862 -1849 245 -347 470 -796 602
-1203 263 -808 290 -1687 79 -2517 -80 -317 -167 -551 -317 -860 -220 -452
-474 -813 -826 -1174 -755 -774 -1710 -1237 -2790 -1353 -131 -14 -690 -18
-840 -6 -787 64 -1576 353 -2231 819 -1023 727 -1697 1836 -1868 3074 -26 187
-37 341 -40 565 -10 713 143 1397 454 2035 643 1316 1883 2245 3318 2484 97
16 233 34 302 40 69 6 141 13 160 15 86 8 509 5 626 -4z m5218 -623 c196 -273
356 -499 356 -501 0 -7 -242 -177 -246 -173 -2 2 -58 80 -124 173 -67 93 -125
170 -129 172 -4 1 -218 -148 -476 -333 -257 -184 -469 -334 -470 -333 -22 31
-203 286 -207 293 -4 6 198 157 462 345 258 184 469 337 470 340 0 3 -56 84
-125 179 l-124 175 57 41 c158 114 187 133 193 127 4 -4 167 -231 363 -505z
m-10728 -221 c30 -82 54 -152 54 -156 0 -4 -17 -10 -37 -14 -54 -8 -170 -67
-221 -111 -207 -180 -183 -489 49 -644 133 -89 291 -105 423 -43 168 79 258
267 228 474 -6 45 -9 85 -4 89 7 6 269 69 288 69 28 0 50 -214 34 -341 -25
-213 -101 -363 -254 -506 -139 -130 -303 -194 -496 -194 -132 0 -229 24 -350
87 -248 128 -392 366 -391 646 2 312 178 594 461 738 55 28 142 60 154 57 4
-2 33 -70 62 -151z m11428 -1003 c148 -376 166 -439 166 -573 0 -158 -36 -248
-139 -342 -102 -94 -248 -150 -395 -150 -102 -1 -177 20 -252 71 -33 22 -62
37 -66 33 -3 -4 -77 -104 -163 -222 -86 -118 -160 -216 -164 -218 -3 -1 -14
17 -23 40 -9 24 -43 111 -75 194 l-60 151 149 172 c81 95 148 177 148 184 0 7
-23 69 -51 138 l-50 126 -187 -73 c-102 -41 -190 -70 -193 -66 -11 10 -129
312 -129 328 0 7 103 53 243 108 133 52 436 171 672 265 237 93 433 166 436
163 4 -4 63 -152 133 -329z m-12421 -1035 l105 -123 -39 -33 c-53 -45 -121
-142 -155 -222 -25 -58 -28 -77 -29 -175 0 -105 2 -114 33 -178 85 -172 277
-271 464 -239 259 45 402 270 346 546 -8 43 -16 60 -32 65 -12 5 -95 20 -186
36 -91 15 -166 29 -168 30 -3 3 49 308 54 314 1 1 128 -19 281 -46 l278 -48
19 -40 c40 -86 68 -225 73 -371 8 -213 -23 -355 -114 -509 -94 -161 -246 -279
-433 -336 -96 -30 -280 -33 -380 -6 -155 41 -317 147 -403 265 -236 321 -194
810 97 1119 38 40 72 73 77 73 4 0 55 -55 112 -122z m12867 -350 c1 -13 29
-266 64 -563 35 -297 62 -541 60 -543 -5 -7 -239 -33 -264 -30 -24 3 -25 6
-42 153 -54 462 -68 586 -68 596 0 7 -14 9 -37 5 -21 -3 -86 -11 -145 -17
l-106 -13 4 -30 c2 -17 9 -74 14 -126 6 -52 22 -191 35 -309 14 -117 23 -216
20 -220 -2 -5 -60 -13 -127 -20 -68 -7 -131 -15 -140 -17 -20 -6 -15 -34 -62
380 -19 164 -37 300 -40 303 -5 5 -276 -23 -282 -30 -4 -3 8 -110 67 -605 11
-96 19 -176 16 -178 -2 -2 -53 -9 -113 -15 -60 -7 -114 -15 -121 -18 -6 -3 47
-42 120 -87 153 -94 1201 -745 1205 -749 5 -5 -50 -370 -57 -377 -6 -7 -1524
-397 -1529 -393 -2 2 38 272 53 361 5 31 5 31 135 59 71 16 134 31 140 35 9 6
99 559 100 612 0 11 -34 37 -101 75 -55 32 -110 65 -122 74 l-21 16 23 159
c13 88 25 171 28 187 4 20 2 27 -10 27 -19 0 -14 -30 -72 475 -25 215 -47 406
-50 425 -9 68 -25 215 -25 236 0 22 -53 15 605 90 121 14 342 40 490 58 344
42 355 43 355 14z m-12256 -1183 c205 -54 335 -262 353 -566 7 -121 -6 -230
-43 -358 -27 -93 -89 -232 -121 -270 l-19 -24 -145 58 c-79 32 -145 59 -147
61 -2 1 15 30 37 64 51 79 98 200 122 315 23 110 23 144 3 220 -26 102 -92
146 -167 110 -48 -22 -80 -88 -107 -215 -82 -389 -130 -484 -276 -556 -54 -27
-68 -29 -169 -29 -101 0 -115 3 -170 29 -120 58 -207 178 -257 351 -30 107
-33 354 -5 485 17 78 64 215 86 249 7 11 37 3 159 -44 l151 -58 -16 -36 c-46
-107 -85 -254 -98 -363 -14 -124 34 -228 105 -228 88 0 123 60 175 305 64 294
121 400 255 470 79 42 200 54 294 30z m-191 -1480 c73 -19 122 -44 178 -91 98
-82 161 -193 234 -414 26 -80 49 -146 50 -147 1 -2 89 26 195 62 106 36 194
64 195 62 9 -12 119 -346 115 -350 -3 -2 -313 -108 -690 -235 -482 -163 -686
-228 -691 -220 -16 26 -220 648 -234 713 -54 257 37 463 250 565 134 65 282
85 398 55z m11540 -561 c364 -152 663 -277 665 -279 1 -1 -30 -79 -69 -173
-58 -140 -74 -169 -87 -164 -10 3 -246 101 -527 218 -280 117 -513 210 -517
206 -5 -5 -187 -433 -228 -539 -9 -22 -10 -22 -139 32 -72 29 -137 57 -145 62
-11 6 23 95 169 445 100 240 185 444 188 452 4 9 11 16 17 16 6 0 309 -124
673 -276z m-6771 -3335 c71 -15 118 -41 155 -83 81 -91 62 -199 -54 -307 -26
-24 -110 -89 -186 -144 -76 -55 -134 -101 -130 -102 4 -2 86 -18 181 -37 95
-18 175 -35 177 -37 2 -2 -2 -28 -7 -56 -9 -44 -14 -53 -32 -53 -26 0 -515 96
-521 102 -3 2 -1 24 3 48 7 43 11 47 162 157 225 163 254 187 285 227 51 67
28 140 -53 167 -48 16 -148 6 -202 -20 -24 -11 -47 -21 -51 -21 -6 0 -29 77
-29 100 0 22 141 67 217 69 18 1 56 -4 85 -10z m2266 -15 c122 -61 196 -216
196 -409 -1 -125 -25 -197 -91 -262 -54 -54 -112 -81 -195 -91 -64 -7 -193 0
-204 11 -3 3 -1 29 6 57 l12 51 47 -8 c58 -10 124 -7 168 8 37 12 97 60 114
90 17 32 27 112 20 164 l-6 50 -21 -36 c-30 -51 -80 -86 -149 -104 -71 -18
-105 -19 -156 -3 -166 49 -222 309 -92 429 59 56 120 77 224 78 62 1 84 -4
127 -25z m-1466 -96 c68 -31 115 -79 147 -148 20 -45 26 -75 29 -161 12 -300
-121 -466 -357 -446 -132 11 -212 61 -263 165 -32 65 -33 69 -33 202 0 99 5
150 17 190 35 112 108 189 206 217 70 19 189 11 254 -19z m737 16 c147 -43
234 -224 218 -452 -15 -208 -132 -318 -337 -316 -132 1 -212 47 -267 151 -43
81 -57 152 -57 273 1 84 5 117 24 164 49 128 151 194 301 195 36 1 89 -6 118
-15z"/>
<path d="M6525 14412 c-68 -13 -325 -97 -325 -106 0 -11 78 -268 83 -272 7 -7
325 98 346 114 67 50 85 116 51 187 -29 59 -90 90 -155 77z"/>
<path d="M6695 13876 c-5 -3 -80 -26 -165 -52 -85 -25 -158 -48 -161 -50 -7
-4 78 -284 90 -296 10 -11 313 85 365 116 24 14 54 41 65 60 40 64 20 160 -43
201 -24 16 -128 30 -151 21z"/>
<path d="M10577 14161 c-131 -43 -224 -136 -276 -274 -104 -280 109 -581 396
-561 205 14 376 192 400 414 17 168 -93 352 -245 411 -80 31 -199 35 -275 10z"/>
<path d="M7958 12453 l-67 -4 -5 -42 c-3 -23 -8 -122 -11 -219 -29 -961 -243
-1997 -595 -2878 -112 -281 -282 -642 -419 -888 -28 -50 -51 -94 -51 -97 0 -3
657 -5 1460 -5 l1461 0 -51 93 c-218 393 -434 888 -580 1327 -267 798 -404
1591 -446 2561 l-6 146 -96 7 c-96 6 -466 5 -594 -1z"/>
<path d="M7504 12395 c-1137 -216 -2133 -884 -2767 -1857 -88 -134 -198 -329
-266 -473 -73 -152 -74 -139 16 -158 123 -26 1055 -206 1082 -209 23 -3 25 3
57 150 56 262 88 333 167 371 52 25 135 28 196 6 102 -36 154 -85 589 -563
166 -182 302 -327 302 -321 0 20 -69 458 -110 696 -55 319 -110 599 -181 914
-62 280 -70 354 -44 417 36 85 106 126 205 120 60 -3 86 -13 286 -110 200 -97
336 -158 355 -158 4 0 46 57 95 128 75 109 89 136 100 192 27 141 94 733 94
838 0 39 -2 42 -27 41 -16 0 -82 -11 -149 -24z"/>
<path d="M8884 12343 c17 -208 29 -324 52 -508 41 -330 34 -306 136 -457 49
-73 96 -139 103 -146 16 -18 91 12 376 149 186 90 221 104 275 107 144 9 235
-91 221 -242 -3 -34 -33 -182 -66 -331 -72 -324 -115 -542 -181 -934 -66 -387
-101 -613 -96 -618 2 -2 136 141 299 319 434 476 498 534 612 558 65 13 104 7
162 -26 72 -41 102 -112 162 -383 16 -73 31 -134 33 -136 2 -1 80 13 173 31
1087 210 1005 193 1005 206 0 18 -124 268 -195 393 -190 335 -406 617 -689
901 -335 334 -663 573 -1081 784 -363 184 -742 313 -1131 385 -192 35 -177 40
-170 -52z"/>
<path d="M6914 11043 c24 -77 139 -668 214 -1102 l18 -103 62 178 c34 99 80
240 102 314 42 138 140 508 140 527 0 6 -24 14 -52 17 -78 10 -210 57 -354
125 -70 34 -129 61 -131 61 -2 0 -2 -8 1 -17z"/>
<path d="M9605 11033 c-163 -85 -384 -163 -461 -163 -32 0 -33 -1 -27 -32 10
-54 99 -383 142 -528 45 -151 163 -492 168 -487 2 2 26 134 53 293 47 268 142
752 174 887 7 31 11 57 7 57 -3 -1 -28 -13 -56 -27z"/>
<path d="M5941 9714 c-35 -173 -52 -214 -116 -272 -118 -108 -160 -108 -751 7
-252 50 -460 89 -461 87 -1 -1 40 -153 93 -337 114 -399 201 -736 210 -812 17
-146 -22 -187 -281 -297 -55 -23 -103 -44 -108 -47 -5 -3 629 -518 979 -794 7
-6 54 38 135 127 408 449 739 908 1028 1427 45 81 81 153 79 161 -2 11 -464
524 -724 805 l-60 64 -23 -119z"/>
<path d="M10409 9628 c-338 -369 -599 -659 -599 -667 0 -10 161 -299 232 -416
259 -425 606 -881 930 -1221 l77 -81 491 393 c270 216 492 396 493 400 1 4
-59 34 -133 66 -164 71 -208 100 -238 158 -20 38 -23 55 -18 107 7 79 82 374
207 817 55 192 98 350 97 352 -2 1 -210 -38 -463 -88 -409 -80 -469 -89 -545
-86 -100 5 -165 33 -222 96 -52 57 -55 66 -91 227 l-33 145 -185 -202z"/>
<path d="M12296 9513 c-123 -419 -296 -1046 -296 -1073 0 -11 56 -39 186 -94
145 -61 195 -87 225 -117 84 -84 78 -210 -18 -327 -19 -24 -272 -233 -562
-464 -289 -232 -530 -425 -536 -430 -10 -10 12 -32 225 -222 146 -130 253
-219 410 -340 l125 -98 48 104 c191 406 312 830 374 1303 14 113 18 209 18
495 -1 390 -12 519 -75 830 -25 125 -106 439 -115 448 -2 2 -6 -5 -9 -15z"/>
<path d="M4227 9428 c-70 -250 -114 -464 -142 -698 -22 -181 -31 -616 -16
-795 43 -520 176 -1031 382 -1463 l58 -123 82 63 c208 161 571 471 654 557 25
27 27 33 15 45 -8 7 -240 193 -515 412 -275 219 -523 422 -551 451 -102 102
-128 219 -71 315 34 59 65 77 275 164 111 46 162 72 162 82 0 42 -283 1058
-299 1075 -5 4 -20 -34 -34 -85z"/>
<path d="M6654 8068 c-329 -527 -682 -972 -1124 -1422 -236 -240 -449 -437
-662 -615 l-127 -105 66 -96 c235 -340 541 -660 893 -937 83 -65 332 -234 337
-229 2 2 -1 42 -8 87 -17 122 -15 392 5 524 90 587 417 1094 926 1434 275 184
571 301 917 363 112 20 160 23 393 23 233 0 281 -3 393 -23 167 -30 345 -80
477 -132 743 -296 1252 -917 1365 -1665 20 -131 23 -402 6 -524 -7 -45 -11
-85 -8 -87 5 -5 212 136 316 215 351 268 657 585 901 933 l77 111 -131 110
c-526 442 -985 923 -1376 1442 -129 171 -341 482 -420 614 l-42 71 -1558 0
-1558 0 -58 -92z"/>
<path d="M8105 6889 c-632 -67 -1169 -427 -1434 -964 -121 -244 -172 -453
-173 -715 -1 -280 58 -520 191 -774 69 -132 73 -136 251 -194 536 -175 1078
-248 1590 -213 398 27 721 90 1086 212 l181 60 50 87 c271 476 292 1029 59
1516 -314 654 -1061 1063 -1801 985z m222 -596 c76 -118 195 -419 224 -563 20
-102 11 -133 -110 -379 -71 -144 -117 -251 -128 -296 -9 -38 -17 -76 -19 -82
-2 -7 -13 -13 -24 -13 -23 0 -22 -3 -44 95 -10 46 -54 147 -128 297 -132 269
-134 281 -94 437 43 167 147 416 218 519 40 58 60 55 105 -15z m-597 -822 c80
-31 180 -110 243 -194 65 -85 137 -224 144 -278 5 -37 5 -39 -23 -39 -25 0
-33 8 -59 58 -16 31 -60 87 -96 124 -158 162 -349 173 -349 21 0 -40 60 -93
104 -93 34 0 36 -2 36 -31 0 -107 -149 -164 -276 -105 -118 55 -174 141 -174
267 0 141 61 231 195 286 46 19 189 10 255 -16z m1360 1 c58 -30 95 -66 128
-121 36 -62 44 -196 15 -262 -60 -135 -227 -215 -346 -165 -48 19 -87 70 -87
112 0 32 2 34 36 34 44 0 104 53 104 93 0 152 -191 141 -349 -21 -36 -37 -80
-93 -96 -125 -26 -49 -34 -57 -55 -55 -42 5 -37 44 18 155 97 193 222 316 370
364 81 27 201 22 262 -9z m-794 -610 c6 -4 22 -31 34 -60 12 -28 38 -66 57
-83 26 -23 33 -35 29 -52 -8 -29 -89 -137 -121 -160 -24 -18 -26 -18 -50 0
-33 24 -114 131 -121 161 -5 19 1 30 28 52 20 16 45 53 58 82 23 55 35 68 60
68 8 0 20 -4 26 -8z"/>
<path d="M14046 10709 c-110 -43 -202 -81 -204 -84 -8 -8 99 -277 131 -328 63
-102 180 -130 295 -70 30 15 69 45 86 66 26 32 31 48 34 105 4 63 0 78 -59
230 -34 89 -67 162 -73 161 -6 0 -101 -36 -210 -80z"/>
<path d="M14146 7538 c-3 -7 -7 -31 -9 -53 -3 -22 -15 -104 -27 -183 -12 -79
-20 -146 -17 -149 6 -6 512 104 534 116 7 4 -22 26 -70 52 -45 26 -153 88
-239 138 -87 50 -160 91 -163 91 -3 0 -7 -6 -9 -12z"/>
<path d="M2331 6510 c-93 -34 -150 -109 -151 -198 0 -39 82 -316 99 -334 10
-11 431 131 431 145 0 7 -21 74 -46 149 -35 102 -56 148 -82 179 -66 77 -148
96 -251 59z"/>
<path d="M9380 2858 c-80 -23 -116 -75 -107 -154 16 -147 197 -178 291 -51 45
61 15 161 -59 197 -45 22 -72 23 -125 8z"/>
<path d="M7864 2761 c-42 -26 -69 -66 -88 -131 -34 -122 -29 -259 12 -339 37
-72 163 -107 241 -67 74 39 115 144 115 301 1 89 -2 106 -26 156 -36 71 -81
99 -164 99 -40 0 -69 -6 -90 -19z"/>
<path d="M8695 2786 c-5 -3 -22 -7 -37 -10 -15 -4 -43 -20 -63 -37 -51 -45
-69 -115 -62 -244 10 -196 73 -285 203 -285 126 0 184 80 184 254 0 151 -42
266 -109 300 -30 16 -98 28 -116 22z"/>
</g>
</svg>
